<mxfile host="app.diagrams.net" modified="2023-05-17T15:57:41.951Z" agent="Mozilla/5.0 (Windows NT 10.0; Win64; x64) AppleWebKit/537.36 (KHTML, like Gecko) Chrome/113.0.0.0 Safari/537.36" etag="pZbTIjLGcYCxqZSK-qKB" version="21.3.2" type="device">
  <diagram name="PÃ¡gina-1" id="BU_xWf7H9QGFefoj0Kg7">
    <mxGraphModel dx="1026" dy="523" grid="1" gridSize="10" guides="1" tooltips="1" connect="1" arrows="1" fold="1" page="1" pageScale="1" pageWidth="827" pageHeight="1169" math="0" shadow="0">
      <root>
        <mxCell id="0" />
        <mxCell id="1" parent="0" />
        <mxCell id="qVpN7wM_KCosdOawsZ5U-1" value="Valles" style="swimlane;fontStyle=0;childLayout=stackLayout;horizontal=1;startSize=26;fillColor=#6a00ff;horizontalStack=0;resizeParent=1;resizeParentMax=0;resizeLast=0;collapsible=1;marginBottom=0;whiteSpace=wrap;html=1;fontColor=#ffffff;strokeColor=#3700CC;" vertex="1" parent="1">
          <mxGeometry x="330" y="110" width="170" height="130" as="geometry" />
        </mxCell>
        <mxCell id="qVpN7wM_KCosdOawsZ5U-2" value="- Codigo &amp;lt;Int&amp;gt;" style="text;strokeColor=none;fillColor=none;align=left;verticalAlign=top;spacingLeft=4;spacingRight=4;overflow=hidden;rotatable=0;points=[[0,0.5],[1,0.5]];portConstraint=eastwest;whiteSpace=wrap;html=1;" vertex="1" parent="qVpN7wM_KCosdOawsZ5U-1">
          <mxGeometry y="26" width="170" height="26" as="geometry" />
        </mxCell>
        <mxCell id="qVpN7wM_KCosdOawsZ5U-3" value="- Nombre &amp;lt;String&amp;gt;" style="text;strokeColor=none;fillColor=none;align=left;verticalAlign=top;spacingLeft=4;spacingRight=4;overflow=hidden;rotatable=0;points=[[0,0.5],[1,0.5]];portConstraint=eastwest;whiteSpace=wrap;html=1;" vertex="1" parent="qVpN7wM_KCosdOawsZ5U-1">
          <mxGeometry y="52" width="170" height="26" as="geometry" />
        </mxCell>
        <mxCell id="qVpN7wM_KCosdOawsZ5U-4" value="- Telefono &amp;lt;String&amp;gt;&lt;br&gt;" style="text;strokeColor=none;fillColor=none;align=left;verticalAlign=top;spacingLeft=4;spacingRight=4;overflow=hidden;rotatable=0;points=[[0,0.5],[1,0.5]];portConstraint=eastwest;whiteSpace=wrap;html=1;" vertex="1" parent="qVpN7wM_KCosdOawsZ5U-1">
          <mxGeometry y="78" width="170" height="26" as="geometry" />
        </mxCell>
        <mxCell id="qVpN7wM_KCosdOawsZ5U-5" value="-Telefono Reserva &amp;lt;String&amp;gt;" style="text;strokeColor=none;fillColor=none;align=left;verticalAlign=top;spacingLeft=4;spacingRight=4;overflow=hidden;rotatable=0;points=[[0,0.5],[1,0.5]];portConstraint=eastwest;whiteSpace=wrap;html=1;" vertex="1" parent="qVpN7wM_KCosdOawsZ5U-1">
          <mxGeometry y="104" width="170" height="26" as="geometry" />
        </mxCell>
        <mxCell id="qVpN7wM_KCosdOawsZ5U-46" style="edgeStyle=orthogonalEdgeStyle;rounded=0;orthogonalLoop=1;jettySize=auto;html=1;entryX=0.998;entryY=-0.1;entryDx=0;entryDy=0;entryPerimeter=0;endArrow=none;endFill=0;" edge="1" parent="1" source="qVpN7wM_KCosdOawsZ5U-6" target="qVpN7wM_KCosdOawsZ5U-2">
          <mxGeometry relative="1" as="geometry" />
        </mxCell>
        <mxCell id="qVpN7wM_KCosdOawsZ5U-6" value="Gerente" style="swimlane;fontStyle=0;childLayout=stackLayout;horizontal=1;startSize=26;fillColor=#e3c800;horizontalStack=0;resizeParent=1;resizeParentMax=0;resizeLast=0;collapsible=1;marginBottom=0;whiteSpace=wrap;html=1;fontColor=#000000;strokeColor=#B09500;" vertex="1" parent="1">
          <mxGeometry x="630" y="170" width="140" height="130" as="geometry" />
        </mxCell>
        <mxCell id="qVpN7wM_KCosdOawsZ5U-7" value="- NIF &amp;lt;String&amp;gt;" style="text;strokeColor=none;fillColor=none;align=left;verticalAlign=top;spacingLeft=4;spacingRight=4;overflow=hidden;rotatable=0;points=[[0,0.5],[1,0.5]];portConstraint=eastwest;whiteSpace=wrap;html=1;" vertex="1" parent="qVpN7wM_KCosdOawsZ5U-6">
          <mxGeometry y="26" width="140" height="26" as="geometry" />
        </mxCell>
        <mxCell id="qVpN7wM_KCosdOawsZ5U-8" value="- Nombre &amp;lt;String&amp;gt;" style="text;strokeColor=none;fillColor=none;align=left;verticalAlign=top;spacingLeft=4;spacingRight=4;overflow=hidden;rotatable=0;points=[[0,0.5],[1,0.5]];portConstraint=eastwest;whiteSpace=wrap;html=1;" vertex="1" parent="qVpN7wM_KCosdOawsZ5U-6">
          <mxGeometry y="52" width="140" height="26" as="geometry" />
        </mxCell>
        <mxCell id="qVpN7wM_KCosdOawsZ5U-9" value="- Sueldo &amp;lt;Double&amp;gt;" style="text;strokeColor=none;fillColor=none;align=left;verticalAlign=top;spacingLeft=4;spacingRight=4;overflow=hidden;rotatable=0;points=[[0,0.5],[1,0.5]];portConstraint=eastwest;whiteSpace=wrap;html=1;" vertex="1" parent="qVpN7wM_KCosdOawsZ5U-6">
          <mxGeometry y="78" width="140" height="26" as="geometry" />
        </mxCell>
        <mxCell id="qVpN7wM_KCosdOawsZ5U-10" value="-Fecha Inicio &amp;lt;String&amp;gt;" style="text;strokeColor=none;fillColor=none;align=left;verticalAlign=top;spacingLeft=4;spacingRight=4;overflow=hidden;rotatable=0;points=[[0,0.5],[1,0.5]];portConstraint=eastwest;whiteSpace=wrap;html=1;" vertex="1" parent="qVpN7wM_KCosdOawsZ5U-6">
          <mxGeometry y="104" width="140" height="26" as="geometry" />
        </mxCell>
        <mxCell id="qVpN7wM_KCosdOawsZ5U-11" value="Hoteles" style="swimlane;fontStyle=0;childLayout=stackLayout;horizontal=1;startSize=26;fillColor=#a20025;horizontalStack=0;resizeParent=1;resizeParentMax=0;resizeLast=0;collapsible=1;marginBottom=0;whiteSpace=wrap;html=1;fontColor=#ffffff;strokeColor=#6F0000;" vertex="1" parent="1">
          <mxGeometry x="410" y="360" width="160" height="130" as="geometry" />
        </mxCell>
        <mxCell id="qVpN7wM_KCosdOawsZ5U-12" value="- Codigo &amp;lt;INT&amp;gt;" style="text;strokeColor=none;fillColor=none;align=left;verticalAlign=top;spacingLeft=4;spacingRight=4;overflow=hidden;rotatable=0;points=[[0,0.5],[1,0.5]];portConstraint=eastwest;whiteSpace=wrap;html=1;" vertex="1" parent="qVpN7wM_KCosdOawsZ5U-11">
          <mxGeometry y="26" width="160" height="26" as="geometry" />
        </mxCell>
        <mxCell id="qVpN7wM_KCosdOawsZ5U-13" value="- nombre &amp;lt;String&amp;gt;" style="text;strokeColor=none;fillColor=none;align=left;verticalAlign=top;spacingLeft=4;spacingRight=4;overflow=hidden;rotatable=0;points=[[0,0.5],[1,0.5]];portConstraint=eastwest;whiteSpace=wrap;html=1;" vertex="1" parent="qVpN7wM_KCosdOawsZ5U-11">
          <mxGeometry y="52" width="160" height="26" as="geometry" />
        </mxCell>
        <mxCell id="qVpN7wM_KCosdOawsZ5U-14" value="- numeroEstrellas &amp;lt;Enum&amp;gt;" style="text;strokeColor=none;fillColor=none;align=left;verticalAlign=top;spacingLeft=4;spacingRight=4;overflow=hidden;rotatable=0;points=[[0,0.5],[1,0.5]];portConstraint=eastwest;whiteSpace=wrap;html=1;" vertex="1" parent="qVpN7wM_KCosdOawsZ5U-11">
          <mxGeometry y="78" width="160" height="26" as="geometry" />
        </mxCell>
        <mxCell id="qVpN7wM_KCosdOawsZ5U-15" value="- precioXhabitacion &amp;lt;Int&amp;gt;" style="text;strokeColor=none;fillColor=none;align=left;verticalAlign=top;spacingLeft=4;spacingRight=4;overflow=hidden;rotatable=0;points=[[0,0.5],[1,0.5]];portConstraint=eastwest;whiteSpace=wrap;html=1;" vertex="1" parent="qVpN7wM_KCosdOawsZ5U-11">
          <mxGeometry y="104" width="160" height="26" as="geometry" />
        </mxCell>
        <mxCell id="qVpN7wM_KCosdOawsZ5U-16" value="Casas" style="swimlane;fontStyle=0;childLayout=stackLayout;horizontal=1;startSize=26;fillColor=#a20025;horizontalStack=0;resizeParent=1;resizeParentMax=0;resizeLast=0;collapsible=1;marginBottom=0;whiteSpace=wrap;html=1;fontColor=#ffffff;strokeColor=#6F0000;" vertex="1" parent="1">
          <mxGeometry x="190" y="360" width="170" height="182" as="geometry" />
        </mxCell>
        <mxCell id="qVpN7wM_KCosdOawsZ5U-44" value="Extends" style="endArrow=block;endSize=16;endFill=0;html=1;rounded=0;entryX=0.132;entryY=1.054;entryDx=0;entryDy=0;entryPerimeter=0;" edge="1" parent="qVpN7wM_KCosdOawsZ5U-16" target="qVpN7wM_KCosdOawsZ5U-5">
          <mxGeometry width="160" relative="1" as="geometry">
            <mxPoint x="80" as="sourcePoint" />
            <mxPoint x="240" as="targetPoint" />
          </mxGeometry>
        </mxCell>
        <mxCell id="qVpN7wM_KCosdOawsZ5U-17" value="- Codigo &amp;lt;Int&amp;gt;" style="text;strokeColor=none;fillColor=none;align=left;verticalAlign=top;spacingLeft=4;spacingRight=4;overflow=hidden;rotatable=0;points=[[0,0.5],[1,0.5]];portConstraint=eastwest;whiteSpace=wrap;html=1;" vertex="1" parent="qVpN7wM_KCosdOawsZ5U-16">
          <mxGeometry y="26" width="170" height="26" as="geometry" />
        </mxCell>
        <mxCell id="qVpN7wM_KCosdOawsZ5U-18" value="-Nombr &amp;lt;String&amp;gt;" style="text;strokeColor=none;fillColor=none;align=left;verticalAlign=top;spacingLeft=4;spacingRight=4;overflow=hidden;rotatable=0;points=[[0,0.5],[1,0.5]];portConstraint=eastwest;whiteSpace=wrap;html=1;" vertex="1" parent="qVpN7wM_KCosdOawsZ5U-16">
          <mxGeometry y="52" width="170" height="26" as="geometry" />
        </mxCell>
        <mxCell id="qVpN7wM_KCosdOawsZ5U-19" value="- Capacidad &amp;lt;Int&amp;gt;" style="text;strokeColor=none;fillColor=none;align=left;verticalAlign=top;spacingLeft=4;spacingRight=4;overflow=hidden;rotatable=0;points=[[0,0.5],[1,0.5]];portConstraint=eastwest;whiteSpace=wrap;html=1;" vertex="1" parent="qVpN7wM_KCosdOawsZ5U-16">
          <mxGeometry y="78" width="170" height="26" as="geometry" />
        </mxCell>
        <mxCell id="qVpN7wM_KCosdOawsZ5U-20" value="- NumHabitaciones &amp;lt;Int&amp;gt;" style="text;strokeColor=none;fillColor=none;align=left;verticalAlign=top;spacingLeft=4;spacingRight=4;overflow=hidden;rotatable=0;points=[[0,0.5],[1,0.5]];portConstraint=eastwest;whiteSpace=wrap;html=1;" vertex="1" parent="qVpN7wM_KCosdOawsZ5U-16">
          <mxGeometry y="104" width="170" height="26" as="geometry" />
        </mxCell>
        <mxCell id="qVpN7wM_KCosdOawsZ5U-21" value="- PrecioDiario &amp;lt;int&amp;gt;" style="text;strokeColor=none;fillColor=none;align=left;verticalAlign=top;spacingLeft=4;spacingRight=4;overflow=hidden;rotatable=0;points=[[0,0.5],[1,0.5]];portConstraint=eastwest;whiteSpace=wrap;html=1;" vertex="1" parent="qVpN7wM_KCosdOawsZ5U-16">
          <mxGeometry y="130" width="170" height="26" as="geometry" />
        </mxCell>
        <mxCell id="qVpN7wM_KCosdOawsZ5U-22" value="- RelacionServicios &amp;lt;enum&amp;gt;" style="text;strokeColor=none;fillColor=none;align=left;verticalAlign=top;spacingLeft=4;spacingRight=4;overflow=hidden;rotatable=0;points=[[0,0.5],[1,0.5]];portConstraint=eastwest;whiteSpace=wrap;html=1;" vertex="1" parent="qVpN7wM_KCosdOawsZ5U-16">
          <mxGeometry y="156" width="170" height="26" as="geometry" />
        </mxCell>
        <mxCell id="qVpN7wM_KCosdOawsZ5U-50" style="edgeStyle=orthogonalEdgeStyle;rounded=0;orthogonalLoop=1;jettySize=auto;html=1;entryX=0.47;entryY=1.069;entryDx=0;entryDy=0;entryPerimeter=0;endArrow=none;endFill=0;" edge="1" parent="1" source="qVpN7wM_KCosdOawsZ5U-23" target="qVpN7wM_KCosdOawsZ5U-15">
          <mxGeometry relative="1" as="geometry">
            <Array as="points">
              <mxPoint x="485" y="550" />
              <mxPoint x="485" y="550" />
            </Array>
          </mxGeometry>
        </mxCell>
        <mxCell id="qVpN7wM_KCosdOawsZ5U-23" value="Restaurantes" style="swimlane;fontStyle=0;childLayout=stackLayout;horizontal=1;startSize=26;fillColor=#76608a;horizontalStack=0;resizeParent=1;resizeParentMax=0;resizeLast=0;collapsible=1;marginBottom=0;whiteSpace=wrap;html=1;fontColor=#ffffff;strokeColor=#432D57;" vertex="1" parent="1">
          <mxGeometry x="414" y="600" width="140" height="130" as="geometry" />
        </mxCell>
        <mxCell id="qVpN7wM_KCosdOawsZ5U-24" value="- Codigo &amp;lt;Int&amp;gt;" style="text;strokeColor=none;fillColor=none;align=left;verticalAlign=top;spacingLeft=4;spacingRight=4;overflow=hidden;rotatable=0;points=[[0,0.5],[1,0.5]];portConstraint=eastwest;whiteSpace=wrap;html=1;" vertex="1" parent="qVpN7wM_KCosdOawsZ5U-23">
          <mxGeometry y="26" width="140" height="26" as="geometry" />
        </mxCell>
        <mxCell id="qVpN7wM_KCosdOawsZ5U-25" value="- Nombre &amp;lt;String&amp;gt;" style="text;strokeColor=none;fillColor=none;align=left;verticalAlign=top;spacingLeft=4;spacingRight=4;overflow=hidden;rotatable=0;points=[[0,0.5],[1,0.5]];portConstraint=eastwest;whiteSpace=wrap;html=1;" vertex="1" parent="qVpN7wM_KCosdOawsZ5U-23">
          <mxGeometry y="52" width="140" height="26" as="geometry" />
        </mxCell>
        <mxCell id="qVpN7wM_KCosdOawsZ5U-26" value="- TipoCocina &amp;lt;String&amp;gt;&lt;br&gt;" style="text;strokeColor=none;fillColor=none;align=left;verticalAlign=top;spacingLeft=4;spacingRight=4;overflow=hidden;rotatable=0;points=[[0,0.5],[1,0.5]];portConstraint=eastwest;whiteSpace=wrap;html=1;" vertex="1" parent="qVpN7wM_KCosdOawsZ5U-23">
          <mxGeometry y="78" width="140" height="26" as="geometry" />
        </mxCell>
        <mxCell id="qVpN7wM_KCosdOawsZ5U-27" value="- NÂºTenedores &amp;lt;Int&amp;gt;" style="text;strokeColor=none;fillColor=none;align=left;verticalAlign=top;spacingLeft=4;spacingRight=4;overflow=hidden;rotatable=0;points=[[0,0.5],[1,0.5]];portConstraint=eastwest;whiteSpace=wrap;html=1;" vertex="1" parent="qVpN7wM_KCosdOawsZ5U-23">
          <mxGeometry y="104" width="140" height="26" as="geometry" />
        </mxCell>
        <mxCell id="qVpN7wM_KCosdOawsZ5U-52" style="edgeStyle=orthogonalEdgeStyle;rounded=0;orthogonalLoop=1;jettySize=auto;html=1;endArrow=none;endFill=0;entryX=1.005;entryY=0.078;entryDx=0;entryDy=0;entryPerimeter=0;" edge="1" parent="1" source="qVpN7wM_KCosdOawsZ5U-28" target="qVpN7wM_KCosdOawsZ5U-35">
          <mxGeometry relative="1" as="geometry">
            <mxPoint x="150" y="820" as="targetPoint" />
            <Array as="points">
              <mxPoint x="445" y="908" />
              <mxPoint x="445" y="810" />
              <mxPoint x="400" y="810" />
              <mxPoint x="400" y="848" />
              <mxPoint x="371" y="848" />
            </Array>
          </mxGeometry>
        </mxCell>
        <mxCell id="qVpN7wM_KCosdOawsZ5U-28" value="Clientes" style="swimlane;fontStyle=0;childLayout=stackLayout;horizontal=1;startSize=26;fillColor=#1ba1e2;horizontalStack=0;resizeParent=1;resizeParentMax=0;resizeLast=0;collapsible=1;marginBottom=0;whiteSpace=wrap;html=1;fontColor=#ffffff;strokeColor=#006EAF;" vertex="1" parent="1">
          <mxGeometry x="520" y="830" width="180" height="156" as="geometry" />
        </mxCell>
        <mxCell id="qVpN7wM_KCosdOawsZ5U-29" value="- Codigo &amp;lt;Int&amp;gt;" style="text;strokeColor=none;fillColor=none;align=left;verticalAlign=top;spacingLeft=4;spacingRight=4;overflow=hidden;rotatable=0;points=[[0,0.5],[1,0.5]];portConstraint=eastwest;whiteSpace=wrap;html=1;" vertex="1" parent="qVpN7wM_KCosdOawsZ5U-28">
          <mxGeometry y="26" width="180" height="26" as="geometry" />
        </mxCell>
        <mxCell id="qVpN7wM_KCosdOawsZ5U-30" value="- NIF &amp;lt;String&amp;gt;" style="text;strokeColor=none;fillColor=none;align=left;verticalAlign=top;spacingLeft=4;spacingRight=4;overflow=hidden;rotatable=0;points=[[0,0.5],[1,0.5]];portConstraint=eastwest;whiteSpace=wrap;html=1;" vertex="1" parent="qVpN7wM_KCosdOawsZ5U-28">
          <mxGeometry y="52" width="180" height="26" as="geometry" />
        </mxCell>
        <mxCell id="qVpN7wM_KCosdOawsZ5U-31" value="- nombre &amp;lt;String&amp;gt;" style="text;strokeColor=none;fillColor=none;align=left;verticalAlign=top;spacingLeft=4;spacingRight=4;overflow=hidden;rotatable=0;points=[[0,0.5],[1,0.5]];portConstraint=eastwest;whiteSpace=wrap;html=1;" vertex="1" parent="qVpN7wM_KCosdOawsZ5U-28">
          <mxGeometry y="78" width="180" height="26" as="geometry" />
        </mxCell>
        <mxCell id="qVpN7wM_KCosdOawsZ5U-32" value="- Correo electronico &amp;lt;String&amp;gt;" style="text;strokeColor=none;fillColor=none;align=left;verticalAlign=top;spacingLeft=4;spacingRight=4;overflow=hidden;rotatable=0;points=[[0,0.5],[1,0.5]];portConstraint=eastwest;whiteSpace=wrap;html=1;" vertex="1" parent="qVpN7wM_KCosdOawsZ5U-28">
          <mxGeometry y="104" width="180" height="26" as="geometry" />
        </mxCell>
        <mxCell id="qVpN7wM_KCosdOawsZ5U-33" value="- FechaAlta &amp;lt;String&amp;gt;" style="text;strokeColor=none;fillColor=none;align=left;verticalAlign=top;spacingLeft=4;spacingRight=4;overflow=hidden;rotatable=0;points=[[0,0.5],[1,0.5]];portConstraint=eastwest;whiteSpace=wrap;html=1;" vertex="1" parent="qVpN7wM_KCosdOawsZ5U-28">
          <mxGeometry y="130" width="180" height="26" as="geometry" />
        </mxCell>
        <mxCell id="qVpN7wM_KCosdOawsZ5U-35" value="Reservas" style="swimlane;fontStyle=0;childLayout=stackLayout;horizontal=1;startSize=26;fillColor=#60a917;horizontalStack=0;resizeParent=1;resizeParentMax=0;resizeLast=0;collapsible=1;marginBottom=0;whiteSpace=wrap;html=1;fontColor=#ffffff;strokeColor=#2D7600;" vertex="1" parent="1">
          <mxGeometry x="210" y="830" width="160" height="208" as="geometry" />
        </mxCell>
        <mxCell id="qVpN7wM_KCosdOawsZ5U-36" value="- Codigo &amp;lt;Int&amp;gt;" style="text;strokeColor=none;fillColor=none;align=left;verticalAlign=top;spacingLeft=4;spacingRight=4;overflow=hidden;rotatable=0;points=[[0,0.5],[1,0.5]];portConstraint=eastwest;whiteSpace=wrap;html=1;" vertex="1" parent="qVpN7wM_KCosdOawsZ5U-35">
          <mxGeometry y="26" width="160" height="26" as="geometry" />
        </mxCell>
        <mxCell id="qVpN7wM_KCosdOawsZ5U-37" value="- CodigoCliente &amp;lt;int&amp;gt;&lt;br&gt;" style="text;strokeColor=none;fillColor=none;align=left;verticalAlign=top;spacingLeft=4;spacingRight=4;overflow=hidden;rotatable=0;points=[[0,0.5],[1,0.5]];portConstraint=eastwest;whiteSpace=wrap;html=1;" vertex="1" parent="qVpN7wM_KCosdOawsZ5U-35">
          <mxGeometry y="52" width="160" height="26" as="geometry" />
        </mxCell>
        <mxCell id="qVpN7wM_KCosdOawsZ5U-38" value="-NombreBenef &amp;lt;String&amp;gt;" style="text;strokeColor=none;fillColor=none;align=left;verticalAlign=top;spacingLeft=4;spacingRight=4;overflow=hidden;rotatable=0;points=[[0,0.5],[1,0.5]];portConstraint=eastwest;whiteSpace=wrap;html=1;" vertex="1" parent="qVpN7wM_KCosdOawsZ5U-35">
          <mxGeometry y="78" width="160" height="26" as="geometry" />
        </mxCell>
        <mxCell id="qVpN7wM_KCosdOawsZ5U-39" value="- FechaEntrada &amp;lt;String&amp;gt;" style="text;strokeColor=none;fillColor=none;align=left;verticalAlign=top;spacingLeft=4;spacingRight=4;overflow=hidden;rotatable=0;points=[[0,0.5],[1,0.5]];portConstraint=eastwest;whiteSpace=wrap;html=1;" vertex="1" parent="qVpN7wM_KCosdOawsZ5U-35">
          <mxGeometry y="104" width="160" height="26" as="geometry" />
        </mxCell>
        <mxCell id="qVpN7wM_KCosdOawsZ5U-40" value="- Fecha Salida&amp;nbsp; &amp;lt;String&amp;gt;" style="text;strokeColor=none;fillColor=none;align=left;verticalAlign=top;spacingLeft=4;spacingRight=4;overflow=hidden;rotatable=0;points=[[0,0.5],[1,0.5]];portConstraint=eastwest;whiteSpace=wrap;html=1;" vertex="1" parent="qVpN7wM_KCosdOawsZ5U-35">
          <mxGeometry y="130" width="160" height="26" as="geometry" />
        </mxCell>
        <mxCell id="qVpN7wM_KCosdOawsZ5U-41" value="- Telefono &amp;lt;String&amp;gt;" style="text;strokeColor=none;fillColor=none;align=left;verticalAlign=top;spacingLeft=4;spacingRight=4;overflow=hidden;rotatable=0;points=[[0,0.5],[1,0.5]];portConstraint=eastwest;whiteSpace=wrap;html=1;" vertex="1" parent="qVpN7wM_KCosdOawsZ5U-35">
          <mxGeometry y="156" width="160" height="26" as="geometry" />
        </mxCell>
        <mxCell id="qVpN7wM_KCosdOawsZ5U-42" value="- Importe &amp;lt;String&amp;gt;" style="text;strokeColor=none;fillColor=none;align=left;verticalAlign=top;spacingLeft=4;spacingRight=4;overflow=hidden;rotatable=0;points=[[0,0.5],[1,0.5]];portConstraint=eastwest;whiteSpace=wrap;html=1;" vertex="1" parent="qVpN7wM_KCosdOawsZ5U-35">
          <mxGeometry y="182" width="160" height="26" as="geometry" />
        </mxCell>
        <mxCell id="qVpN7wM_KCosdOawsZ5U-43" value="Extends" style="endArrow=block;endSize=16;endFill=0;html=1;rounded=0;exitX=0.435;exitY=-0.017;exitDx=0;exitDy=0;exitPerimeter=0;entryX=0.428;entryY=1.085;entryDx=0;entryDy=0;entryPerimeter=0;" edge="1" parent="1" source="qVpN7wM_KCosdOawsZ5U-11" target="qVpN7wM_KCosdOawsZ5U-5">
          <mxGeometry width="160" relative="1" as="geometry">
            <mxPoint x="380" y="320" as="sourcePoint" />
            <mxPoint x="540" y="320" as="targetPoint" />
          </mxGeometry>
        </mxCell>
        <mxCell id="qVpN7wM_KCosdOawsZ5U-53" value="Relation" style="endArrow=open;html=1;endSize=12;startArrow=diamondThin;startSize=14;startFill=0;edgeStyle=orthogonalEdgeStyle;rounded=0;" edge="1" parent="1" target="qVpN7wM_KCosdOawsZ5U-35">
          <mxGeometry relative="1" as="geometry">
            <mxPoint x="570" y="370" as="sourcePoint" />
            <mxPoint x="730" y="370" as="targetPoint" />
            <Array as="points">
              <mxPoint x="570" y="560" />
              <mxPoint x="290" y="560" />
            </Array>
          </mxGeometry>
        </mxCell>
        <mxCell id="qVpN7wM_KCosdOawsZ5U-56" value="1" style="text;html=1;strokeColor=none;fillColor=none;align=center;verticalAlign=middle;whiteSpace=wrap;rounded=0;" vertex="1" parent="1">
          <mxGeometry x="510" y="110" width="50" height="30" as="geometry" />
        </mxCell>
        <mxCell id="qVpN7wM_KCosdOawsZ5U-57" value="1,*" style="text;html=1;strokeColor=none;fillColor=none;align=center;verticalAlign=middle;whiteSpace=wrap;rounded=0;" vertex="1" parent="1">
          <mxGeometry x="710" y="150" width="60" height="30" as="geometry" />
        </mxCell>
        <mxCell id="qVpN7wM_KCosdOawsZ5U-60" value="1" style="text;html=1;strokeColor=none;fillColor=none;align=center;verticalAlign=middle;whiteSpace=wrap;rounded=0;" vertex="1" parent="1">
          <mxGeometry x="490" y="570" width="60" height="30" as="geometry" />
        </mxCell>
        <mxCell id="qVpN7wM_KCosdOawsZ5U-61" value="0,*" style="text;html=1;strokeColor=none;fillColor=none;align=center;verticalAlign=middle;whiteSpace=wrap;rounded=0;" vertex="1" parent="1">
          <mxGeometry x="500" y="490" width="60" height="30" as="geometry" />
        </mxCell>
        <mxCell id="qVpN7wM_KCosdOawsZ5U-62" value="0,*" style="text;html=1;strokeColor=none;fillColor=none;align=center;verticalAlign=middle;whiteSpace=wrap;rounded=0;" vertex="1" parent="1">
          <mxGeometry x="560" y="400" width="60" height="30" as="geometry" />
        </mxCell>
        <mxCell id="qVpN7wM_KCosdOawsZ5U-63" value="0,*" style="text;html=1;strokeColor=none;fillColor=none;align=center;verticalAlign=middle;whiteSpace=wrap;rounded=0;" vertex="1" parent="1">
          <mxGeometry x="280" y="780" width="60" height="30" as="geometry" />
        </mxCell>
        <mxCell id="qVpN7wM_KCosdOawsZ5U-66" value="0,*" style="text;html=1;strokeColor=none;fillColor=none;align=center;verticalAlign=middle;whiteSpace=wrap;rounded=0;" vertex="1" parent="1">
          <mxGeometry x="360" y="856" width="60" height="30" as="geometry" />
        </mxCell>
        <mxCell id="qVpN7wM_KCosdOawsZ5U-68" value="Relation" style="endArrow=open;html=1;endSize=12;startArrow=diamondThin;startSize=14;startFill=0;edgeStyle=orthogonalEdgeStyle;rounded=0;exitX=0.005;exitY=0.082;exitDx=0;exitDy=0;exitPerimeter=0;entryX=0.25;entryY=0;entryDx=0;entryDy=0;" edge="1" parent="1" source="qVpN7wM_KCosdOawsZ5U-16" target="qVpN7wM_KCosdOawsZ5U-35">
          <mxGeometry relative="1" as="geometry">
            <mxPoint x="40" y="450" as="sourcePoint" />
            <mxPoint x="200" y="450" as="targetPoint" />
          </mxGeometry>
        </mxCell>
        <mxCell id="qVpN7wM_KCosdOawsZ5U-69" value="0..n" style="edgeLabel;resizable=0;html=1;align=left;verticalAlign=top;" connectable="0" vertex="1" parent="qVpN7wM_KCosdOawsZ5U-68">
          <mxGeometry x="-1" relative="1" as="geometry" />
        </mxCell>
        <mxCell id="qVpN7wM_KCosdOawsZ5U-70" value="1" style="edgeLabel;resizable=0;html=1;align=right;verticalAlign=top;" connectable="0" vertex="1" parent="qVpN7wM_KCosdOawsZ5U-68">
          <mxGeometry x="1" relative="1" as="geometry" />
        </mxCell>
        <mxCell id="qVpN7wM_KCosdOawsZ5U-71" value="0,*" style="text;html=1;strokeColor=none;fillColor=none;align=center;verticalAlign=middle;whiteSpace=wrap;rounded=0;" vertex="1" parent="1">
          <mxGeometry x="120" y="390" width="60" height="30" as="geometry" />
        </mxCell>
        <mxCell id="qVpN7wM_KCosdOawsZ5U-72" value="0,*" style="text;html=1;strokeColor=none;fillColor=none;align=center;verticalAlign=middle;whiteSpace=wrap;rounded=0;" vertex="1" parent="1">
          <mxGeometry x="190" y="790" width="60" height="30" as="geometry" />
        </mxCell>
        <mxCell id="qVpN7wM_KCosdOawsZ5U-73" value="0,*" style="text;html=1;strokeColor=none;fillColor=none;align=center;verticalAlign=middle;whiteSpace=wrap;rounded=0;" vertex="1" parent="1">
          <mxGeometry x="470" y="910" width="60" height="30" as="geometry" />
        </mxCell>
      </root>
    </mxGraphModel>
  </diagram>
</mxfile>
